<mxfile host="app.diagrams.net" modified="2023-08-28T13:50:53.290Z" agent="Mozilla/5.0 (Windows NT 10.0; Win64; x64) AppleWebKit/537.36 (KHTML, like Gecko) Chrome/116.0.0.0 Safari/537.36 Edg/116.0.1938.62" version="21.6.9" etag="lY-McPJgFdo1vMJ7nMCJ" type="github">
  <diagram name="페이지-1" id="OOS9ICTMRTGrL8Yklj-P">
    <mxGraphModel>
      <root>
        <mxCell id="0" />
        <mxCell id="1" parent="0" />
      </root>
    </mxGraphModel>
  </diagram>
</mxfile>
